<svg xmlns="http://www.w3.org/2000/svg" xmlns:xlink="http://www.w3.org/1999/xlink" width="500" zoomAndPan="magnify" viewBox="0 0 375 374.999991" height="500" preserveAspectRatio="xMidYMid meet" version="1.0"><defs><clipPath id="bd54567b66"><path d="M 53.160156 75 L 321.660156 75 L 321.660156 338.25 L 53.160156 338.25 Z M 53.160156 75 " clip-rule="nonzero"/></clipPath><clipPath id="ffa900efc7"><path d="M 164 37.5 L 227 37.5 L 227 97 L 164 97 Z M 164 37.5 " clip-rule="nonzero"/></clipPath></defs><g clip-path="url(#bd54567b66)"><path fill="#000000" d="M 321.46875 225.417969 C 310.875 289.433594 255.300781 338.25 188.324219 338.25 C 113.777344 338.25 53.347656 277.785156 53.347656 203.199219 C 53.347656 144.265625 91.074219 94.167969 143.675781 75.722656 C 103.148438 96.011719 75.480469 136.65625 75.480469 183.492188 C 75.480469 185.113281 75.519531 186.714844 75.589844 188.316406 C 76.683594 236.433594 106.605469 277.621094 149.179688 296.105469 C 146.023438 295.277344 142.910156 294.332031 139.855469 293.269531 C 157.214844 302.519531 177.136719 307.777344 198.324219 307.777344 C 219.507812 307.777344 239.164062 302.589844 256.449219 293.453125 C 286.414062 279.902344 309.949219 255.441406 321.46875 225.417969 Z M 321.46875 225.417969 " fill-opacity="1" fill-rule="evenodd"/></g><path fill="#000000" d="M 106.925781 270.664062 L 105.128906 147.359375 L 138.070312 132.734375 L 195.644531 107.171875 L 253.21875 132.734375 L 286.160156 147.359375 L 287.675781 238.882812 C 266.828125 275.433594 226.816406 300.167969 180.878906 300.167969 C 166.488281 300.167969 152.675781 297.734375 139.859375 293.277344 C 143.421875 295.175781 147.085938 296.902344 150.851562 298.449219 C 133.835938 293.027344 119.160156 284.664062 106.925781 270.664062 Z M 106.925781 270.664062 " fill-opacity="1" fill-rule="evenodd"/><path fill="#000000" d="M 286.15625 147.359375 L 286.15625 249.152344 C 267.722656 281.148438 234.570312 304 195.640625 308.984375 L 195.640625 187.550781 L 228.582031 172.921875 Z M 286.15625 147.359375 " fill-opacity="1" fill-rule="evenodd"/><path fill="#000000" d="M 105.128906 147.359375 L 138.070312 132.734375 L 195.644531 107.171875 L 253.21875 132.734375 L 286.160156 147.359375 L 253.21875 161.988281 L 195.644531 187.550781 L 138.070312 161.988281 Z M 125.804688 147.359375 L 195.644531 178.367188 L 265.476562 147.359375 L 195.644531 116.351562 Z M 125.804688 147.359375 " fill-opacity="1" fill-rule="evenodd"/><path fill="#ba701d" d="M 125.804688 147.359375 L 195.644531 178.367188 L 265.476562 147.359375 L 195.644531 116.351562 Z M 125.804688 147.359375 " fill-opacity="1" fill-rule="evenodd"/><path fill="#f4a120" d="M 133.984375 150.992188 L 195.644531 178.367188 L 257.296875 150.992188 L 195.644531 123.613281 Z M 133.984375 150.992188 " fill-opacity="1" fill-rule="evenodd"/><path fill="#f29900" d="M 253.214844 199.6875 L 249.957031 201.136719 L 249.957031 211.011719 L 253.214844 209.5625 L 271.460938 201.460938 L 271.460938 191.585938 Z M 138.066406 199.6875 L 141.320312 201.136719 L 141.320312 211.011719 L 138.066406 209.5625 L 119.816406 201.460938 L 119.816406 191.585938 Z M 114.761719 199.21875 L 105.121094 194.941406 L 105.121094 185.066406 L 114.761719 189.34375 Z M 146.378906 203.378906 L 170.789062 214.21875 L 170.789062 224.09375 L 146.378906 213.257812 Z M 175.839844 216.464844 L 195.632812 225.253906 L 215.425781 216.464844 L 215.425781 226.339844 L 195.632812 235.128906 L 175.839844 226.339844 Z M 276.511719 199.21875 L 286.148438 194.941406 L 286.148438 185.066406 L 276.511719 189.34375 Z M 244.894531 203.378906 L 220.484375 214.21875 L 220.484375 224.09375 L 244.894531 213.257812 Z M 244.894531 203.378906 " fill-opacity="1" fill-rule="evenodd"/><path fill="#f29900" d="M 250.3125 200.972656 L 249.957031 201.128906 L 249.957031 211.011719 L 250.3125 210.851562 L 271.460938 201.460938 L 271.460938 191.585938 Z M 250.3125 200.972656 " fill-opacity="1" fill-rule="evenodd"/><path fill="#f29900" d="M 244.898438 203.375 L 220.488281 214.214844 L 220.488281 288.082031 C 229.113281 285.097656 237.289062 281.191406 244.898438 276.492188 Z M 244.898438 203.375 " fill-opacity="1" fill-rule="evenodd"/><path fill="#f4a120" d="M 138.070312 199.6875 L 141.328125 201.136719 L 141.328125 211.011719 L 138.070312 209.5625 L 119.824219 201.460938 L 119.824219 191.585938 Z M 114.765625 199.21875 L 105.128906 194.941406 L 105.128906 185.066406 L 114.765625 189.34375 Z M 146.382812 203.378906 L 170.792969 214.21875 L 170.792969 224.09375 L 146.382812 213.257812 Z M 175.847656 216.464844 L 195.640625 225.253906 L 195.640625 235.128906 L 175.847656 226.339844 Z M 175.847656 216.464844 " fill-opacity="1" fill-rule="evenodd"/><path fill="#f4a120" d="M 140.96875 200.972656 L 141.328125 201.128906 L 141.328125 211.011719 L 140.96875 210.851562 L 119.824219 201.460938 L 119.824219 191.585938 Z M 140.96875 200.972656 " fill-opacity="1" fill-rule="evenodd"/><path fill="#f29900" d="M 253.214844 181.304688 L 195.644531 206.867188 L 138.070312 181.304688 L 105.128906 166.679688 L 105.128906 176.554688 L 138.070312 191.179688 L 195.644531 216.742188 L 253.214844 191.179688 L 286.15625 176.554688 L 286.15625 166.679688 Z M 253.214844 181.304688 " fill-opacity="1" fill-rule="evenodd"/><path fill="#f4a120" d="M 138.070312 191.179688 L 195.644531 216.742188 L 195.644531 206.867188 L 138.070312 181.304688 L 105.128906 166.679688 L 105.128906 176.554688 Z M 138.070312 191.179688 " fill-opacity="1" fill-rule="evenodd"/><g clip-path="url(#ffa900efc7)"><path fill="#f29900" d="M 195.644531 37.5 L 202.980469 60.25 L 226.871094 60.203125 L 207.515625 74.210938 L 214.941406 96.933594 L 195.644531 82.847656 L 176.34375 96.933594 L 183.765625 74.210938 L 164.414062 60.203125 L 188.300781 60.25 Z M 195.644531 37.5 " fill-opacity="1" fill-rule="evenodd"/></g><path fill="#f29900" d="M 239.339844 76.535156 C 286.609375 92.964844 320.445312 136.984375 320.445312 188.714844 C 320.445312 254.472656 265.769531 307.78125 198.316406 307.78125 C 177.132812 307.78125 157.214844 302.519531 139.847656 293.277344 C 152.671875 297.734375 166.476562 300.167969 180.867188 300.167969 C 248.316406 300.167969 302.992188 246.859375 302.992188 181.097656 C 302.992188 135.988281 277.261719 96.742188 239.332031 76.539062 Z M 239.339844 76.535156 " fill-opacity="1" fill-rule="evenodd"/></svg>